<svg width="39" height="38" viewBox="0 0 39 38" fill="none" xmlns="http://www.w3.org/2000/svg">
<g clip-path="url(#clip0_0_94)">
<path d="M3.34075 12.9659C3.28082 12.9659 3.22097 12.9618 3.16159 12.9537C2.83185 12.9065 2.53435 12.7303 2.33446 12.4638C2.13457 12.1973 2.04863 11.8624 2.09554 11.5327C2.43591 9.15021 3.53982 6.94242 5.24157 5.24067C6.94333 3.53892 9.15111 2.43501 11.5336 2.09463C11.6969 2.07133 11.8632 2.08041 12.0229 2.12137C12.1827 2.16233 12.3329 2.23436 12.4649 2.33336C12.5968 2.43235 12.708 2.55636 12.792 2.69832C12.876 2.84027 12.9313 2.99738 12.9546 3.16069C12.9779 3.32399 12.9688 3.49029 12.9278 3.65008C12.8869 3.80987 12.8148 3.96003 12.7159 4.09199C12.6169 4.22394 12.4929 4.3351 12.3509 4.41913C12.2089 4.50316 12.0518 4.5584 11.8885 4.58171C10.0441 4.84468 8.33477 5.69905 7.01736 7.01646C5.69995 8.33386 4.84559 10.0432 4.58261 11.8876C4.5397 12.1866 4.39058 12.4601 4.16253 12.6581C3.93449 12.8561 3.64277 12.9654 3.34075 12.9659Z" fill="#664DEF"/>
<path d="M3.34075 12.9659C3.28082 12.9659 3.22097 12.9618 3.16159 12.9537C2.83185 12.9065 2.53435 12.7303 2.33446 12.4638C2.13457 12.1973 2.04863 11.8624 2.09554 11.5327C2.43591 9.15021 3.53982 6.94242 5.24157 5.24067C6.94333 3.53892 9.15111 2.43501 11.5336 2.09463C11.6969 2.07133 11.8632 2.08041 12.0229 2.12137C12.1827 2.16233 12.3329 2.23436 12.4649 2.33336C12.5968 2.43235 12.708 2.55636 12.792 2.69832C12.876 2.84027 12.9313 2.99738 12.9546 3.16069C12.9779 3.32399 12.9688 3.49029 12.9278 3.65008C12.8869 3.80987 12.8148 3.96003 12.7159 4.09199C12.6169 4.22394 12.4929 4.3351 12.3509 4.41913C12.2089 4.50316 12.0518 4.5584 11.8885 4.58171C10.0441 4.84468 8.33477 5.69905 7.01736 7.01646C5.69995 8.33386 4.84559 10.0432 4.58261 11.8876C4.5397 12.1866 4.39058 12.4601 4.16253 12.6581C3.93449 12.8561 3.64277 12.9654 3.34075 12.9659Z" fill="#664DEF"/>
<path d="M8.36419 12.9668C8.30426 12.9667 8.2444 12.9626 8.18503 12.9545C7.85529 12.9073 7.55779 12.7311 7.3579 12.4647C7.158 12.1982 7.07207 11.8633 7.11897 11.5335C7.27805 10.4192 7.7943 9.38661 8.59022 8.59071C9.38614 7.7948 10.4188 7.27856 11.5331 7.1195C11.862 7.07354 12.1958 7.15983 12.4613 7.35947C12.7268 7.55911 12.9023 7.85582 12.9495 8.18463C12.9967 8.51344 12.9116 8.84754 12.7129 9.11375C12.5142 9.37996 12.2182 9.55658 11.8895 9.60494C11.313 9.68693 10.7786 9.95391 10.3668 10.3657C9.95498 10.7775 9.68802 11.3119 9.60605 11.8885C9.56314 12.1874 9.41402 12.461 9.18597 12.659C8.95793 12.857 8.6662 12.9663 8.36419 12.9668Z" fill="#664DEF"/>
<path d="M8.36419 12.9668C8.30426 12.9667 8.2444 12.9626 8.18503 12.9545C7.85529 12.9073 7.55779 12.7311 7.3579 12.4647C7.158 12.1982 7.07207 11.8633 7.11897 11.5335C7.27805 10.4192 7.7943 9.38661 8.59022 8.59071C9.38614 7.7948 10.4188 7.27856 11.5331 7.1195C11.862 7.07354 12.1958 7.15983 12.4613 7.35947C12.7268 7.55911 12.9023 7.85582 12.9495 8.18463C12.9967 8.51344 12.9116 8.84754 12.7129 9.11375C12.5142 9.37996 12.2182 9.55658 11.8895 9.60494C11.313 9.68693 10.7786 9.95391 10.3668 10.3657C9.95498 10.7775 9.68802 11.3119 9.60605 11.8885C9.56314 12.1874 9.41402 12.461 9.18597 12.659C8.95793 12.857 8.6662 12.9663 8.36419 12.9668Z" fill="#664DEF"/>
<path d="M36.8257 12.9659C36.5236 12.9654 36.2319 12.8561 36.0039 12.6581C35.7758 12.4601 35.6267 12.1866 35.5838 11.8876C35.3208 10.0432 34.4664 8.33388 33.149 7.01647C31.8316 5.69906 30.1223 4.8447 28.2779 4.58172C27.9481 4.53464 27.6505 4.35848 27.4505 4.09199C27.2506 3.8255 27.1648 3.4905 27.2118 3.16069C27.2589 2.83088 27.4351 2.53328 27.7016 2.33336C27.968 2.13344 28.303 2.04757 28.6329 2.09464C31.0153 2.43502 33.2231 3.53893 34.9248 5.24068C36.6266 6.94243 37.7305 9.15022 38.0709 11.5327C38.1178 11.8624 38.0318 12.1973 37.8319 12.4638C37.632 12.7302 37.3345 12.9064 37.0048 12.9536C36.9454 12.9617 36.8856 12.9659 36.8257 12.9659Z" fill="#664DEF"/>
<path d="M36.8257 12.9659C36.5236 12.9654 36.2319 12.8561 36.0039 12.6581C35.7758 12.4601 35.6267 12.1866 35.5838 11.8876C35.3208 10.0432 34.4664 8.33388 33.149 7.01647C31.8316 5.69906 30.1223 4.8447 28.2779 4.58172C27.9481 4.53464 27.6505 4.35848 27.4505 4.09199C27.2506 3.8255 27.1648 3.4905 27.2118 3.16069C27.2589 2.83088 27.4351 2.53328 27.7016 2.33336C27.968 2.13344 28.303 2.04757 28.6329 2.09464C31.0153 2.43502 33.2231 3.53893 34.9248 5.24068C36.6266 6.94243 37.7305 9.15022 38.0709 11.5327C38.1178 11.8624 38.0318 12.1973 37.8319 12.4638C37.632 12.7302 37.3345 12.9064 37.0048 12.9536C36.9454 12.9617 36.8856 12.9659 36.8257 12.9659Z" fill="#664DEF"/>
<path d="M31.8024 12.9661C31.5004 12.9655 31.2087 12.8563 30.9806 12.6583C30.7526 12.4602 30.6034 12.1867 30.5605 11.8878C30.4785 11.3112 30.2116 10.7768 29.7998 10.365C29.388 9.95322 28.8536 9.68626 28.277 9.60428C28.1134 9.58141 27.9558 9.52646 27.8135 9.44258C27.6711 9.35869 27.5467 9.24752 27.4473 9.11545C27.348 8.98337 27.2758 8.83298 27.2347 8.67292C27.1936 8.51285 27.1846 8.34625 27.208 8.18267C27.2315 8.01909 27.287 7.86176 27.3714 7.71969C27.4558 7.57762 27.5674 7.45361 27.6999 7.35477C27.8323 7.25593 27.983 7.18421 28.1432 7.14373C28.3034 7.10324 28.47 7.09479 28.6335 7.11884C29.7478 7.27789 30.7804 7.79412 31.5764 8.59001C32.3723 9.3859 32.8885 10.4185 33.0476 11.5328C33.0945 11.8626 33.0086 12.1975 32.8087 12.4639C32.6088 12.7304 32.3113 12.9065 31.9815 12.9538C31.9222 12.9619 31.8623 12.966 31.8024 12.9661Z" fill="#664DEF"/>
<path d="M31.8024 12.9661C31.5004 12.9655 31.2087 12.8563 30.9806 12.6583C30.7526 12.4602 30.6034 12.1867 30.5605 11.8878C30.4785 11.3112 30.2116 10.7768 29.7998 10.365C29.388 9.95322 28.8536 9.68626 28.277 9.60428C28.1134 9.58141 27.9558 9.52646 27.8135 9.44258C27.6711 9.35869 27.5467 9.24752 27.4473 9.11545C27.348 8.98337 27.2758 8.83298 27.2347 8.67292C27.1936 8.51285 27.1846 8.34625 27.208 8.18267C27.2315 8.01909 27.287 7.86176 27.3714 7.71969C27.4558 7.57762 27.5674 7.45361 27.6999 7.35477C27.8323 7.25593 27.983 7.18421 28.1432 7.14373C28.3034 7.10324 28.47 7.09479 28.6335 7.11884C29.7478 7.27789 30.7804 7.79412 31.5764 8.59001C32.3723 9.3859 32.8885 10.4185 33.0476 11.5328C33.0945 11.8626 33.0086 12.1975 32.8087 12.4639C32.6088 12.7304 32.3113 12.9065 31.9815 12.9538C31.9222 12.9619 31.8623 12.966 31.8024 12.9661Z" fill="#664DEF"/>
<path d="M33.2729 38.1897H6.89304C6.03953 38.1896 5.20145 37.9622 4.465 37.5308C3.72855 37.0994 3.12031 36.4796 2.70284 35.7351C2.28537 34.9907 2.07374 34.1485 2.08971 33.2951C2.10568 32.4418 2.34868 31.6081 2.79372 30.8798L15.9829 9.29661C16.4122 8.59435 17.0146 8.01412 17.7325 7.61155C18.4504 7.20898 19.2596 6.99756 20.0827 6.99756C20.9057 6.99756 21.715 7.20898 22.4329 7.61155C23.1507 8.01412 23.7532 8.59435 24.1824 9.29661L37.3724 30.8798C37.8174 31.6081 38.0604 32.4418 38.0764 33.2951C38.0923 34.1485 37.8807 34.9907 37.4632 35.7351C37.0458 36.4796 36.4375 37.0994 35.7011 37.5308C34.9646 37.9622 34.1264 38.1896 33.2729 38.1897ZM20.083 9.50919C19.6892 9.50473 19.3012 9.60372 18.9577 9.79626C18.6142 9.98881 18.3273 10.2682 18.1256 10.6064L4.93739 32.1896C4.72471 32.5371 4.60848 32.9349 4.60068 33.3423C4.59287 33.7496 4.69377 34.1516 4.89298 34.507C5.0922 34.8623 5.38253 35.1582 5.73408 35.364C6.08563 35.5699 6.4857 35.6783 6.89309 35.6782H33.2729C33.6803 35.6783 34.0804 35.5699 34.4319 35.364C34.7835 35.1582 35.0738 34.8623 35.273 34.507C35.4722 34.1516 35.5731 33.7496 35.5653 33.3423C35.5575 32.9349 35.4413 32.5371 35.2286 32.1896L22.0394 10.6064C21.838 10.2682 21.5513 9.98879 21.2079 9.79622C20.8645 9.60365 20.4766 9.50467 20.083 9.50919Z" fill="#664DEF"/>
<path d="M20.0829 27.3347C19.7499 27.3346 19.4305 27.2023 19.1951 26.9668C18.9596 26.7313 18.8272 26.412 18.8271 26.0789V17.707C18.8271 17.3739 18.9595 17.0545 19.195 16.819C19.4305 16.5835 19.7499 16.4512 20.0829 16.4512C20.416 16.4512 20.7354 16.5835 20.9709 16.819C21.2064 17.0545 21.3387 17.3739 21.3387 17.707V26.0789C21.3387 26.412 21.2063 26.7313 20.9708 26.9668C20.7353 27.2023 20.416 27.3346 20.0829 27.3347Z" fill="#664DEF"/>
<path d="M20.0831 31.9401C21.0078 31.9401 21.7575 31.1904 21.7575 30.2657C21.7575 29.341 21.0078 28.5913 20.0831 28.5913C19.1583 28.5913 18.4087 29.341 18.4087 30.2657C18.4087 31.1904 19.1583 31.9401 20.0831 31.9401Z" fill="#664DEF"/>
</g>
<defs>
<clipPath id="clip0_0_94">
<rect width="39" height="38" fill="white"/>
</clipPath>
</defs>
</svg>
